<?xml version="1.0" encoding="utf-8"?>
<!-- Generator: Adobe Illustrator 22.0.1, SVG Export Plug-In . SVG Version: 6.00 Build 0)  -->
<svg version="1.1" id="Layer_1" xmlns="http://www.w3.org/2000/svg" xmlns:xlink="http://www.w3.org/1999/xlink" x="0px" y="0px"
	 viewBox="0 0 1080 303.1" style="enable-background:new 0 0 1080 303.1;" xml:space="preserve">
<g>
	<path d="M50.8,87l52,164.6h5.1L160,87h58L145,298.5H65.7L-7.2,87H50.8z"/>
	<rect x="242.7" y="87" width="53.7" height="211.5"/>
	<path d="M464.5,166.7L557,298.5h-62.3l-68.2-99.8l-32.4,26.9v72.9h-53.7V0h53.7v159.5h5.1L485.4,87h75L464.5,166.7z"/>
	<path d="M560.5,87V21.3h53.7V87h58v45.2h-58v108.3c0,8.5,4.3,12.8,11.9,12.8h34.1v45.2h-58c-23.9,0-41.8-17.1-41.8-40.9V132.2
		h-53.7V87H560.5z"/>
	<path d="M804,81c62.3,0,110.9,45.2,110.9,111.7c0,66.5-48.6,111.7-110.9,111.7c-62.3,0-110.9-45.2-110.9-111.7
		C693.1,126.2,741.7,81,804,81z M804,256.7c34.1,0,57.1-25.6,57.1-64c0-38.4-23-64-57.1-64c-34.1,0-57.1,25.6-57.1,64
		C746.8,231.1,769.9,256.7,804,256.7z"/>
	<path d="M1002.7,117.7h6c8.1-23.5,26-31.6,52.9-31.6h20.5V133h-31.6c-27.3,0-46.9,14.5-46.9,44.3v121.1h-53.7V87h52.9V117.7z"/>
</g>
</svg>
